<svg xmlns="http://www.w3.org/2000/svg" fill="none" viewBox="0 0 152 40"><defs/><path fill="#069" d="M111.3 2.9c0-1.6 1.3-2.9 2.9-2.9h33.9c1.6 0 3 1.3 3 2.9V37c0 1.6-1.4 2.9-3 2.9h-33.9c-1.6 0-3-1.3-3-2.9V3z"/><path fill="#fff" fill-rule="evenodd" d="M0 33.5h16.6v-5.4H6V7.3H0v26.2zM25 33.5v-18h-6v18h6zM22 13c2 0 3.4-1.4 3.4-3.1C25.4 8 24 6.7 22 6.7c-2 0-3.4 1.4-3.4 3.2 0 1.7 1.3 3 3.3 3zM27.8 33.5h6v-10c0-.6 0-1.2.2-1.5.4-1.1 1.4-2.2 3-2.2 2.2 0 3.1 1.6 3.1 4v9.7h6V23.1c0-5.5-3-8-7-8a6 6 0 00-5.4 3v-2.7h-6c.2 1.7 0 18.1 0 18.1zM54.6 7.3h-6v26.2h6v-5.8l1.5-2 4.7 7.8h7.4l-8-11.2 7-7.6h-7.3s-4.9 6.8-5.3 7.6v-15z" clip-rule="evenodd"/><path fill="#fff" fill-rule="evenodd" d="M84.2 26l.2-2.4c0-4.7-2.4-9.4-8.6-9.4-6.7 0-9.8 5.3-9.8 10 0 6 3.8 9.7 10.4 9.7 2.6 0 5-.4 7-1.2l-.8-4c-1.7.6-3.3.8-5.4.8-2.8 0-5.2-1.1-5.4-3.6h12.4zm-12.5-4c.2-1.6 1.2-4 3.8-4 2.7 0 3.3 2.5 3.3 4h-7zM99.2 7.3v9c-1-1.2-2.7-2-5.1-2-4.7 0-8.7 3.6-8.7 10 0 5.8 3.7 9.6 8.3 9.6 2.4 0 4.8-1 6-3.1h.1l.3 2.7h5.3l-.2-5.6V7.3h-6zm0 17.8v1.4a3.5 3.5 0 01-3.6 2.8c-2.5 0-4.1-2-4.1-5.2 0-3 1.4-5.4 4.1-5.4 1.9 0 3.2 1.3 3.5 2.9l.1 1v2.5zM123.3 33.5v-18h-6v18h6zm-3-20.5c2.1 0 3.4-1.4 3.4-3.2 0-1.7-1.3-3-3.3-3-2.1 0-3.4 1.3-3.4 3 0 1.8 1.3 3.2 3.3 3.2zM126.6 33.5h6V23.4c0-.5 0-1 .2-1.5.5-1 1.5-2.2 3.1-2.2 2.2 0 3 1.7 3 4.1v9.7h6V23c0-5.5-2.9-8.1-6.8-8.1a6 6 0 00-5.5 3v-2.6h-6v18z" clip-rule="evenodd"/></svg>