<svg xmlns="http://www.w3.org/2000/svg" fill="none" viewBox="0 0 40 40"><defs/><path fill="#FFD35D" d="M14 0c1.3 0 2.3.6 3.1 1.7.9 1 1 2.3.4 3.7a27.4 27.4 0 00-2 20.3c.5 1.6.7 3.4.7 5.5a8 8 0 01-2.3 5.9 7.9 7.9 0 01-5.6 2 7 7 0 01-6-3A15.6 15.6 0 010 27c0-2.3.5-5 1.4-8 1-3 2.2-6 3.6-9C6.4 7.2 8 4.8 9.5 3 11.1.9 12.7 0 14.1 0zm22.2 0c1.2 0 2.2.6 3 1.7.9 1 1 2.3.4 3.7a27.4 27.4 0 00-2 20.3c.5 1.6.7 3.4.7 5.5A8 8 0 0136 37a7.9 7.9 0 01-5.6 2 7 7 0 01-6-3 15.6 15.6 0 01-2.3-9c0-2.3.4-5 1.3-8 1-3 2.3-6 3.7-9C28.5 7.2 30 4.8 31.6 3 33.2.9 34.7 0 36.2 0z"/></svg>