<svg width="740" height="68" viewBox="0 0 740 68" fill="none" xmlns="http://www.w3.org/2000/svg">
<path d="M30.7459 55.7003H30.8338L51.6531 4.21706H61.3161V66.4186H54.9913V12.3876H54.8156L32.3271 66.4186H28.989L6.50057 12.3876H6.32487V66.4186H0V4.21706H9.663L30.7459 55.7003Z" fill="#525252"/>
<path d="M130.779 45.8605C130.779 48.9647 130.223 51.8346 129.11 54.4703C128.056 57.1059 126.563 59.3902 124.63 61.323C122.697 63.2558 120.384 64.7786 117.69 65.8915C114.996 66.9457 112.039 67.4729 108.818 67.4729C105.655 67.4729 102.727 66.9457 100.033 65.8915C97.3394 64.7786 95.0262 63.2558 93.0936 61.323C91.161 59.3902 89.6383 57.1059 88.5256 54.4703C87.4714 51.8346 86.9444 48.9647 86.9444 45.8605C86.9444 42.7562 87.4714 39.8863 88.5256 37.2506C89.6383 34.615 91.161 32.3307 93.0936 30.3979C95.0262 28.4651 97.3394 26.9716 100.033 25.9173C102.727 24.8045 105.655 24.2481 108.818 24.2481C112.039 24.2481 114.996 24.8045 117.69 25.9173C120.384 26.9716 122.697 28.4651 124.63 30.3979C126.563 32.3307 128.056 34.615 129.11 37.2506C130.223 39.8863 130.779 42.7562 130.779 45.8605ZM124.454 45.8605C124.454 43.5762 124.074 41.4384 123.312 39.447C122.61 37.3971 121.585 35.64 120.238 34.1757C118.891 32.6529 117.251 31.4522 115.318 30.5736C113.386 29.6951 111.219 29.2558 108.818 29.2558C106.417 29.2558 104.25 29.6951 102.317 30.5736C100.443 31.4522 98.8328 32.6529 97.4858 34.1757C96.1389 35.64 95.0847 37.3971 94.3234 39.447C93.6206 41.4384 93.2693 43.5762 93.2693 45.8605C93.2693 48.1447 93.6206 50.3118 94.3234 52.3618C95.0847 54.3531 96.1389 56.1103 97.4858 57.6331C98.8328 59.0973 100.443 60.2687 102.317 61.1473C104.25 61.9673 106.417 62.3773 108.818 62.3773C111.219 62.3773 113.386 61.9673 115.318 61.1473C117.251 60.2687 118.891 59.0973 120.238 57.6331C121.585 56.1103 122.61 54.3531 123.312 52.3618C124.074 50.3118 124.454 48.1447 124.454 45.8605Z" fill="#525252"/>
<path d="M189.928 59.478C188.171 62.1137 185.887 64.1051 183.076 65.4522C180.265 66.7993 177.366 67.4729 174.379 67.4729C171.158 67.4729 168.23 66.9165 165.595 65.8036C163.018 64.6908 160.793 63.168 158.919 61.2351C157.103 59.3023 155.668 57.0181 154.614 54.3824C153.619 51.7468 153.121 48.9061 153.121 45.8605C153.121 42.8148 153.619 39.9742 154.614 37.3385C155.668 34.7028 157.103 32.4186 158.919 30.4858C160.793 28.553 163.018 27.0301 165.595 25.9173C168.23 24.8045 171.158 24.2481 174.379 24.2481C177.366 24.2481 180.265 24.9509 183.076 26.3566C185.887 27.7037 188.171 29.7244 189.928 32.4186H190.104V0H196.077V66.4186H190.104V59.478H189.928ZM159.446 45.8605C159.446 48.1447 159.797 50.3118 160.5 52.3618C161.203 54.3531 162.198 56.1103 163.487 57.6331C164.834 59.0973 166.473 60.2687 168.406 61.1473C170.339 61.9673 172.535 62.3773 174.994 62.3773C177.278 62.3773 179.387 61.9673 181.319 61.1473C183.252 60.2687 184.921 59.0973 186.326 57.6331C187.732 56.1688 188.815 54.441 189.577 52.4496C190.397 50.3997 190.807 48.2033 190.807 45.8605C190.807 43.5177 190.397 41.3506 189.577 39.3592C188.815 37.3092 187.732 35.5521 186.326 34.0879C184.921 32.565 183.252 31.3936 181.319 30.5736C179.387 29.6951 177.278 29.2558 174.994 29.2558C172.535 29.2558 170.339 29.6951 168.406 30.5736C166.473 31.4522 164.834 32.6529 163.487 34.1757C162.198 35.64 161.203 37.3971 160.5 39.447C159.797 41.4384 159.446 43.5762 159.446 45.8605Z" fill="#525252"/>
<path d="M255.875 42.6977C255.7 38.832 254.441 35.64 252.098 33.1215C249.814 30.5444 246.534 29.2558 242.259 29.2558C240.268 29.2558 238.423 29.6365 236.725 30.3979C235.027 31.1008 233.533 32.0965 232.245 33.385C230.956 34.615 229.932 36.05 229.17 37.6899C228.409 39.2713 227.97 40.9406 227.853 42.6977H255.875ZM261.937 44.6305C261.937 45.0405 261.937 45.4798 261.937 45.9483C261.937 46.4169 261.907 46.9147 261.849 47.4419H227.765C227.823 49.4918 228.233 51.4246 228.995 53.2403C229.756 55.056 230.81 56.6374 232.157 57.9845C233.504 59.3316 235.085 60.4152 236.901 61.2351C238.716 61.9966 240.678 62.3773 242.786 62.3773C245.89 62.3773 248.555 61.6744 250.78 60.2687C253.064 58.8045 254.792 57.1352 255.963 55.261L260.443 58.7752C257.984 61.8794 255.26 64.1051 252.274 65.4522C249.345 66.7993 246.183 67.4729 242.786 67.4729C239.741 67.4729 236.901 66.9457 234.265 65.8915C231.689 64.7786 229.463 63.2558 227.589 61.323C225.715 59.3902 224.222 57.1059 223.109 54.4703C222.055 51.8346 221.528 48.9647 221.528 45.8605C221.528 42.7562 222.055 39.8863 223.109 37.2506C224.163 34.615 225.627 32.3307 227.501 30.3979C229.375 28.4651 231.571 26.9716 234.09 25.9173C236.608 24.8045 239.331 24.2481 242.259 24.2481C245.48 24.2481 248.321 24.8045 250.78 25.9173C253.24 26.9716 255.29 28.4358 256.929 30.3101C258.569 32.1258 259.799 34.2636 260.619 36.7235C261.497 39.1835 261.937 41.8191 261.937 44.6305Z" fill="#525252"/>
<path d="M287.26 34.3514C287.26 33.2386 287.23 31.8036 287.172 30.0465C287.113 28.2894 287.025 26.708 286.908 25.3023H292.618C292.735 26.4152 292.823 27.6451 292.882 28.9922C292.94 30.3394 292.969 31.4522 292.969 32.3307H293.145C294.316 29.9294 296.073 27.9966 298.416 26.5323C300.758 25.0095 303.394 24.2481 306.322 24.2481C307.083 24.2481 307.757 24.2774 308.342 24.3359C308.987 24.3945 309.631 24.5116 310.275 24.6873L309.484 30.3101C309.133 30.1929 308.547 30.0758 307.728 29.9587C306.908 29.8415 306.088 29.7829 305.268 29.7829C303.687 29.7829 302.164 30.0758 300.7 30.6615C299.236 31.2472 297.947 32.1843 296.835 33.4729C295.781 34.7028 294.902 36.3135 294.199 38.3049C293.555 40.2377 293.233 42.5805 293.233 45.3333V66.4186H287.26V34.3514Z" fill="#525252"/>
<path d="M336.747 25.3023C336.865 26.4152 336.952 27.6451 337.011 28.9922C337.069 30.3394 337.099 31.4522 337.099 32.3307H337.274C338.446 29.9294 340.349 27.9966 342.984 26.5323C345.62 25.0095 348.402 24.2481 351.33 24.2481C356.542 24.2481 360.436 25.8002 363.013 28.9044C365.649 32.0086 366.966 36.1085 366.966 41.2041V66.4186H360.993V43.6641C360.993 41.497 360.817 39.5349 360.466 37.7778C360.114 36.0207 359.499 34.5271 358.621 33.2972C357.801 32.0086 356.659 31.0129 355.195 30.3101C353.789 29.6072 352.003 29.2558 349.836 29.2558C348.255 29.2558 346.703 29.578 345.181 30.2222C343.716 30.8665 342.399 31.8622 341.228 33.2093C340.056 34.4978 339.119 36.1671 338.416 38.2171C337.714 40.2084 337.362 42.5805 337.362 45.3333V66.4186H331.389V34.3514C331.389 33.2386 331.36 31.8036 331.301 30.0465C331.242 28.2894 331.155 26.708 331.037 25.3023H336.747Z" fill="#525252"/>
<path d="M447.613 56.4031C446.559 57.9845 445.271 59.478 443.748 60.8837C442.284 62.2894 440.556 63.5194 438.565 64.5736C436.632 65.6279 434.466 66.4479 432.065 67.0336C429.722 67.6779 427.145 68 424.334 68C419.649 68 415.315 67.18 411.333 65.5401C407.351 63.9001 403.925 61.6451 401.055 58.7752C398.185 55.8467 395.931 52.391 394.291 48.4083C392.71 44.4255 391.919 40.062 391.919 35.3178C391.919 30.5736 392.739 26.2102 394.379 22.2274C396.019 18.2446 398.273 14.8183 401.143 11.9483C404.071 9.01981 407.497 6.73557 411.421 5.09561C415.403 3.45564 419.708 2.63566 424.334 2.63566C426.618 2.63566 428.844 2.86994 431.01 3.3385C433.236 3.80706 435.315 4.48062 437.247 5.35917C439.18 6.17916 440.937 7.20413 442.518 8.43411C444.099 9.60551 445.417 10.9526 446.471 12.4755L441.2 16.3411C440.556 15.3454 439.678 14.3497 438.565 13.354C437.511 12.3583 436.252 11.4798 434.788 10.7184C433.324 9.95694 431.713 9.34195 429.956 8.87338C428.258 8.40482 426.413 8.17054 424.422 8.17054C420.381 8.17054 416.75 8.90267 413.529 10.3669C410.367 11.8312 407.673 13.8226 405.447 16.3411C403.222 18.801 401.524 21.671 400.352 24.9509C399.181 28.2308 398.595 31.6865 398.595 35.3178C398.595 38.9492 399.181 42.4048 400.352 45.6848C401.582 48.9647 403.31 51.8639 405.535 54.3824C407.761 56.8424 410.455 58.8045 413.617 60.2687C416.838 61.733 420.44 62.4651 424.422 62.4651C427.994 62.4651 431.391 61.733 434.612 60.2687C437.833 58.8045 440.527 56.4617 442.694 53.2403L447.613 56.4031Z" fill="#525252"/>
<path d="M510.423 45.8605C510.423 48.9647 509.867 51.8346 508.754 54.4703C507.7 57.1059 506.207 59.3902 504.274 61.323C502.342 63.2558 500.028 64.7786 497.334 65.8915C494.64 66.9457 491.683 67.4729 488.462 67.4729C485.3 67.4729 482.371 66.9457 479.677 65.8915C476.984 64.7786 474.67 63.2558 472.738 61.323C470.805 59.3902 469.282 57.1059 468.17 54.4703C467.116 51.8346 466.589 48.9647 466.589 45.8605C466.589 42.7562 467.116 39.8863 468.17 37.2506C469.282 34.615 470.805 32.3307 472.738 30.3979C474.67 28.4651 476.984 26.9716 479.677 25.9173C482.371 24.8045 485.3 24.2481 488.462 24.2481C491.683 24.2481 494.64 24.8045 497.334 25.9173C500.028 26.9716 502.342 28.4651 504.274 30.3979C506.207 32.3307 507.7 34.615 508.754 37.2506C509.867 39.8863 510.423 42.7562 510.423 45.8605ZM504.099 45.8605C504.099 43.5762 503.718 41.4384 502.957 39.447C502.254 37.3971 501.229 35.64 499.882 34.1757C498.535 32.6529 496.895 31.4522 494.963 30.5736C493.03 29.6951 490.863 29.2558 488.462 29.2558C486.061 29.2558 483.894 29.6951 481.961 30.5736C480.087 31.4522 478.477 32.6529 477.13 34.1757C475.783 35.64 474.729 37.3971 473.968 39.447C473.265 41.4384 472.913 43.5762 472.913 45.8605C472.913 48.1447 473.265 50.3118 473.968 52.3618C474.729 54.3531 475.783 56.1103 477.13 57.6331C478.477 59.0973 480.087 60.2687 481.961 61.1473C483.894 61.9673 486.061 62.3773 488.462 62.3773C490.863 62.3773 493.03 61.9673 494.963 61.1473C496.895 60.2687 498.535 59.0973 499.882 57.6331C501.229 56.1103 502.254 54.3531 502.957 52.3618C503.718 50.3118 504.099 48.1447 504.099 45.8605Z" fill="#525252"/>
<path d="M541.901 66.4186H535.927V0H541.901V66.4186Z" fill="#525252"/>
<path d="M576.508 66.4186H570.534V0H576.508V66.4186Z" fill="#525252"/>
<path d="M630.88 39.8863C630.88 36.3135 629.943 33.6486 628.069 31.8915C626.195 30.1344 623.472 29.2558 619.899 29.2558C617.44 29.2558 615.156 29.6951 613.047 30.5736C610.939 31.4522 609.153 32.6236 607.689 34.0879L604.351 30.1344C606.049 28.4358 608.275 27.0301 611.027 25.9173C613.838 24.8045 617.001 24.2481 620.514 24.2481C622.74 24.2481 624.819 24.5702 626.751 25.2145C628.684 25.8002 630.382 26.708 631.846 27.938C633.311 29.168 634.452 30.7201 635.272 32.5943C636.092 34.4686 636.502 36.6649 636.502 39.1835V57.1938C636.502 58.7752 636.561 60.4152 636.678 62.1137C636.795 63.8122 636.971 65.2472 637.205 66.4186H631.846C631.671 65.4229 631.524 64.3394 631.407 63.168C631.29 61.9966 631.231 60.8544 631.231 59.7416H631.056C629.182 62.4944 627.044 64.4858 624.643 65.7158C622.301 66.8872 619.46 67.4729 616.122 67.4729C614.541 67.4729 612.901 67.2386 611.203 66.77C609.563 66.36 608.04 65.6572 606.635 64.6615C605.288 63.6658 604.146 62.3773 603.209 60.7959C602.33 59.2145 601.891 57.2817 601.891 54.9974C601.891 51.8346 602.682 49.3454 604.263 47.5297C605.903 45.6555 608.07 44.2791 610.763 43.4005C613.457 42.4634 616.532 41.8777 619.987 41.6434C623.501 41.3506 627.132 41.2041 630.88 41.2041V39.8863ZM629.123 45.8605C626.664 45.8605 624.175 45.9776 621.656 46.2119C619.197 46.3876 616.942 46.7976 614.892 47.4419C612.901 48.0276 611.261 48.9061 609.973 50.0775C608.685 51.2489 608.04 52.801 608.04 54.7339C608.04 56.1981 608.304 57.4281 608.831 58.4238C609.417 59.4195 610.178 60.2395 611.115 60.8837C612.052 61.4694 613.077 61.9087 614.189 62.2016C615.361 62.4358 616.532 62.553 617.703 62.553C619.812 62.553 621.686 62.2016 623.325 61.4987C624.965 60.7373 626.341 59.7416 627.454 58.5116C628.567 57.2231 629.416 55.7588 630.002 54.1189C630.587 52.4789 630.88 50.7511 630.88 48.9354V45.8605H629.123Z" fill="#525252"/>
<path d="M670.514 59.478V66.4186H664.541V0H670.514V32.4186H670.69C672.447 29.7244 674.731 27.7037 677.542 26.3566C680.353 24.9509 683.252 24.2481 686.239 24.2481C689.46 24.2481 692.358 24.8045 694.935 25.9173C697.571 27.0301 699.796 28.553 701.612 30.4858C703.486 32.4186 704.92 34.7028 705.916 37.3385C706.97 39.9742 707.497 42.8148 707.497 45.8605C707.497 48.9061 706.97 51.7468 705.916 54.3824C704.92 57.0181 703.486 59.3023 701.612 61.2351C699.796 63.168 697.571 64.6908 694.935 65.8036C692.358 66.9165 689.46 67.4729 686.239 67.4729C683.252 67.4729 680.353 66.7993 677.542 65.4522C674.731 64.1051 672.447 62.1137 670.69 59.478H670.514ZM701.172 45.8605C701.172 43.5762 700.821 41.4384 700.118 39.447C699.415 37.3971 698.391 35.64 697.044 34.1757C695.755 32.6529 694.145 31.4522 692.212 30.5736C690.279 29.6951 688.083 29.2558 685.624 29.2558C683.34 29.2558 681.231 29.6951 679.299 30.5736C677.366 31.3936 675.697 32.565 674.292 34.0879C672.886 35.5521 671.773 37.3092 670.953 39.3592C670.192 41.3506 669.811 43.5177 669.811 45.8605C669.811 48.2033 670.192 50.3997 670.953 52.4496C671.773 54.441 672.886 56.1688 674.292 57.6331C675.697 59.0973 677.366 60.2687 679.299 61.1473C681.231 61.9673 683.34 62.3773 685.624 62.3773C688.083 62.3773 690.279 61.9673 692.212 61.1473C694.145 60.2687 695.755 59.0973 697.044 57.6331C698.391 56.1103 699.415 54.3531 700.118 52.3618C700.821 50.3118 701.172 48.1447 701.172 45.8605Z" fill="#525252"/>
<path d="M740 62.2016C740 63.4315 739.561 64.5444 738.682 65.5401C737.804 66.4772 736.662 66.9457 735.256 66.9457C733.851 66.9457 732.709 66.4772 731.83 65.5401C730.952 64.5444 730.513 63.4315 730.513 62.2016C730.513 60.9716 730.952 59.888 731.83 58.9509C732.709 57.9552 733.851 57.4574 735.256 57.4574C736.662 57.4574 737.804 57.9552 738.682 58.9509C739.561 59.888 740 60.9716 740 62.2016Z" fill="#525252"/>
</svg>
