<?xml version="1.0" standalone="no"?>
<!DOCTYPE svg PUBLIC "-//W3C//DTD SVG 20010904//EN"
 "http://www.w3.org/TR/2001/REC-SVG-20010904/DTD/svg10.dtd">
<svg version="1.0" xmlns="http://www.w3.org/2000/svg"
 width="700.000000pt" height="700.000000pt" viewBox="0 0 700.000000 700.000000"
 preserveAspectRatio="xMidYMid meet">
<metadata>
Created by potrace 1.11, written by Peter Selinger 2001-2013
</metadata>
<g transform="translate(0.000000,700.000000) scale(0.100000,-0.100000)"
fill="#000000" stroke="none">
<path d="M4766 4554 c-156 -29 -332 -114 -459 -222 -275 -234 -414 -604 -368
-976 46 -364 256 -669 568 -825 334 -167 753 -133 1061 86 71 52 92 84 92 145
0 50 -19 82 -60 103 -50 26 -81 18 -174 -41 -156 -99 -263 -138 -411 -150 -95
-7 -236 14 -324 50 -237 96 -423 324 -482 591 -19 87 -17 305 4 383 46 173
111 288 226 402 168 166 356 239 581 226 159 -10 260 -46 386 -139 81 -60 96
-67 139 -67 97 0 155 94 110 180 -36 69 -263 203 -410 241 -106 28 -362 35
-479 13z"/>
<path d="M1482 4540 c-41 -10 -71 -36 -88 -77 -21 -48 -21 -1878 0 -1927 41
-97 175 -113 233 -27 l23 34 0 678 c0 374 4 679 8 679 5 0 152 -289 327 -642
175 -354 329 -657 342 -675 31 -43 88 -61 143 -44 24 7 49 24 63 44 13 18 167
326 343 684 175 359 322 653 327 653 4 0 7 -309 7 -686 0 -667 1 -688 20 -719
40 -65 134 -81 194 -34 59 46 56 -6 56 1021 0 917 -1 944 -20 975 -27 44 -62
65 -112 65 -53 1 -80 -12 -111 -55 -13 -17 -194 -383 -402 -812 -207 -429
-381 -787 -385 -794 -5 -10 -142 253 -413 795 -223 445 -415 819 -428 831 -23
20 -72 44 -87 42 -4 -1 -22 -5 -40 -9z"/>
<path d="M6076 2746 c-55 -33 -86 -88 -86 -154 0 -63 16 -98 64 -140 87 -76
229 -45 277 62 31 69 18 148 -34 204 -54 58 -151 70 -221 28z"/>
</g>
</svg>
