<svg xmlns="http://www.w3.org/2000/svg" fill="none" viewBox="0 0 1121 96">
  <title>MordernCollab.</title>
  <path fill="currentColor" d="M4.6 93.7c-1.2 0-2.4-.5-3.3-1.3C.4 91.4 0 90.3 0 89V5.8c0-1.3.4-2.4 1.3-3.3 1-.9 2-1.3 3.3-1.3 2 0 3.3.8 4.2 2.4l39.9 79.3h-4L83.7 3.6c1-1.6 2.4-2.4 4.2-2.4 1.2 0 2.3.4 3.2 1.3.8.9 1.3 2 1.3 3.3V89c0 1.3-.5 2.4-1.3 3.4a4.9 4.9 0 01-6.6 0c-1-1-1.4-2.1-1.4-3.4V17.8h2L50.4 89.4a4.3 4.3 0 01-4 2.2c-2 0-3.4-1-4.3-2.8L7 18.4l2.3-.6V89c0 1.3-.4 2.4-1.4 3.4-.9.8-2 1.3-3.2 1.3zM163.8 94.2c-6.3 0-12-1.4-17-4.2a31 31 0 01-11.6-11.7c-2.9-5-4.3-10.7-4.3-17 0-6.4 1.4-12 4.3-17a31 31 0 0111.7-11.7c5-2.9 10.6-4.3 16.9-4.3 6.3 0 12 1.4 16.8 4.3a31 31 0 0111.7 11.7 34.6 34.6 0 010 34A31 31 0 01180.6 90a32.9 32.9 0 01-16.8 4.2zm0-8.2c4.6 0 8.7-1.1 12.3-3.2 3.6-2.2 6.5-5 8.5-8.8 2-3.7 3.1-8 3.1-12.7 0-4.7-1-9-3-12.6-2.1-3.8-5-6.8-8.6-9a23.9 23.9 0 00-12.3-3.1 23.4 23.4 0 00-21 12c-2 3.8-3 8-3 12.7 0 4.8 1 9 3 12.7a23.6 23.6 0 0021 12zM263.2 94.2c-6.2 0-11.8-1.4-16.8-4.2-5-3-8.9-6.9-11.8-11.9-2.9-5-4.3-10.6-4.3-16.9a31.5 31.5 0 0132-33 29.8 29.8 0 0124.6 12.4V5.8c0-1.4.4-2.5 1.3-3.3.9-.9 2-1.3 3.3-1.3 1.4 0 2.5.4 3.3 1.3 1 .8 1.3 1.9 1.3 3.3v55.9a34.1 34.1 0 01-4.6 16.7 32.4 32.4 0 01-28.3 15.9zm0-8.2A23.2 23.2 0 00284 73.9a25 25 0 003.2-12.7 24.7 24.7 0 00-11.8-21.4 23.2 23.2 0 00-12.2-3.2 23.6 23.6 0 00-24 24.6A25 25 0 00251 82.8c3.7 2 7.7 3.2 12.2 3.2zM366.1 94.2a31.2 31.2 0 01-28.7-15.9c-2.7-4.9-4-10.6-4-17s1.2-12.1 3.8-17c2.7-5 6.4-8.9 11-11.7 4.7-2.9 10-4.3 16.2-4.3 6 0 11.2 1.4 15.6 4.1a27 27 0 0110.4 11.3 35.8 35.8 0 013.7 16.4c0 1.3-.4 2.3-1.2 3.1-.8.7-1.8 1-3 1h-50.4v-7.5h51.3l-5.1 3.7a27 27 0 00-2.5-12.3 20.1 20.1 0 00-18.8-11.6c-4.5 0-8.5 1-11.9 3.2-3.4 2.1-6 5-8 8.8-1.7 3.8-2.6 8-2.6 12.8 0 4.8 1 9.1 3 12.8a23.6 23.6 0 0021.2 12c2.9 0 5.7-.5 8.6-1.4 2.9-1 5.2-2.3 7-3.8.8-.7 1.8-1.1 2.9-1.1a4 4 0 012.8.8c1 1 1.6 2 1.6 3.1s-.4 2-1.3 2.9a34.8 34.8 0 01-21.5 7.7zM432.6 53.8a26.5 26.5 0 0113-22.3c3.7-2.2 7.9-3.3 12.4-3.3 3.7 0 6.5.5 8.4 1.5 2 1 2.8 2.5 2.3 4.5-.3 1.2-.9 2-1.7 2.4-.7.4-1.6.5-2.7.5l-3.5-.3c-4.5-.4-8.4.1-11.9 1.4a15.7 15.7 0 00-11.1 15.5h-5.2zm.7 39.9c-1.4 0-2.5-.4-3.3-1.2a4.5 4.5 0 01-1.2-3.3V33.4c0-1.4.4-2.5 1.2-3.3.8-.8 1.9-1.2 3.3-1.2s2.5.4 3.3 1.2c.8.8 1.2 1.9 1.2 3.3v55.8c0 1.4-.4 2.5-1.2 3.3-.8.8-1.9 1.2-3.3 1.2zM557.9 93.7c-1.4 0-2.5-.5-3.4-1.3-.8-1-1.3-2-1.3-3.2V58.4c0-5-1-9-2.8-12.1a17.3 17.3 0 00-7.6-7.1 23.8 23.8 0 00-10.8-2.4c-3.8 0-7.3.8-10.5 2.3-3 1.5-5.5 3.5-7.3 6.1a15.2 15.2 0 00-2.8 9H505a26.4 26.4 0 0114-22.5 31.3 31.3 0 0129 .1c4.5 2.2 8 5.6 10.5 10.1 2.7 4.5 4 10 4 16.5v30.8c0 1.2-.5 2.3-1.3 3.2-1 .8-2 1.3-3.2 1.3zm-51 0a5 5 0 01-3.4-1.2c-.8-.9-1.2-2-1.2-3.3V33.5c0-1.4.4-2.5 1.2-3.3.9-.9 2-1.3 3.4-1.3s2.5.4 3.2 1.3c1 .8 1.3 1.9 1.3 3.3v55.7c0 1.3-.4 2.4-1.3 3.3-.8.8-1.8 1.2-3.2 1.2zM644.5 94.8A44.5 44.5 0 01611.8 81a49.6 49.6 0 01-13.4-33.6A48.3 48.3 0 01611.7 14a47.2 47.2 0 0132.8-14A46 46 0 01660 2.5c4.7 1.6 9.2 4.3 13.5 8 .7.5 1.1 1.1 1.2 2 .1.6 0 1.4-.2 2-.4.7-.8 1.2-1.5 1.5-.1.6-.5 1-1.2 1.4-.6.3-1.3.4-2.2.4-.8-.1-1.6-.5-2.4-1.1-3-2.7-6.4-4.7-10-6-3.7-1.3-7.9-2-12.7-2-5.1 0-10 1-14.4 3.1a38.5 38.5 0 00-19.8 20.8 39.5 39.5 0 008 42.2 35.6 35.6 0 0038.5 9.2c3.9-1.5 7.5-3.5 11-6.2 1-.8 2-1.1 3-1 1 .2 2 .7 2.8 1.5.8.8 1.2 1.8 1.2 3a4.8 4.8 0 01-1.3 3.3c-4 3.8-8.5 6.4-13.5 8-5 1.5-10.1 2.2-15.5 2.2zM737.1 94.2c-6.3 0-12-1.4-16.9-4.2a31 31 0 01-11.7-11.7c-2.9-5-4.3-10.7-4.3-17 0-6.4 1.4-12 4.3-17a31 31 0 0111.7-11.7c5-2.9 10.6-4.3 17-4.3 6.3 0 11.9 1.4 16.8 4.3a31 31 0 0111.7 11.7 34.6 34.6 0 010 34A31 31 0 01754 90a32.9 32.9 0 01-16.9 4.2zm0-8.2c4.6 0 8.7-1.1 12.4-3.2 3.6-2.2 6.4-5 8.5-8.8 2-3.7 3-8 3-12.7 0-4.7-1-9-3-12.6-2-3.8-5-6.8-8.5-9a23.9 23.9 0 00-12.4-3.1 23.4 23.4 0 00-21 12c-2 3.8-3 8-3 12.7 0 4.8 1 9 3 12.7a23.6 23.6 0 0021 12zM821 93.7c-3.1 0-6-1-8.5-2.6a17.7 17.7 0 01-5.8-7.3c-1.3-3-2-6.6-2-10.6V5.7c0-1.4.4-2.4 1.2-3.2.9-.9 2-1.3 3.3-1.3 1.4 0 2.4.4 3.2 1.3.9.8 1.3 1.8 1.3 3.2v67.5c0 3.4.7 6.1 2 8.3 1.5 2 3.2 3.2 5.4 3.2h3c1.1 0 2 .4 2.8 1.3.7.7 1 1.8 1 3.2 0 1.3-.5 2.4-1.5 3.3-1 .8-2.2 1.2-3.8 1.2h-1.5zM873.8 93.7c-3.2 0-6-1-8.5-2.6a17.7 17.7 0 01-5.8-7.3c-1.4-3-2-6.6-2-10.6V5.7c0-1.4.3-2.4 1.1-3.2.9-.9 2-1.3 3.3-1.3 1.4 0 2.4.4 3.2 1.3.9.8 1.3 1.8 1.3 3.2v67.5c0 3.4.7 6.1 2 8.3 1.5 2 3.2 3.2 5.4 3.2h3c1.1 0 2 .4 2.8 1.3.7.7 1 1.8 1 3.2 0 1.3-.5 2.4-1.5 3.3-1 .8-2.2 1.2-3.8 1.2h-1.5zM937.5 94.2a31.5 31.5 0 01-27.9-16 34 34 0 01-4.1-16.9 31.8 31.8 0 0116.1-28.7c5-2.8 10.6-4.3 16.8-4.3a32 32 0 0128.4 16.1c3 5 4.5 10.6 4.5 17l-3.6 2.8a29.9 29.9 0 01-14.8 26.1c-4.5 2.6-9.7 4-15.4 4zm1-8.2A23.2 23.2 0 00959 74c2.2-3.8 3.2-8 3.2-12.7 0-4.7-1-9-3.2-12.6-2-3.7-4.9-6.7-8.5-8.8a22.6 22.6 0 00-12.2-3.3 23.6 23.6 0 00-20.8 12 25 25 0 00-3.2 12.7c0 4.7 1 9 3.2 12.7a23.6 23.6 0 0020.8 12zm28.2 7.7c-1.3 0-2.4-.4-3.3-1.2-.9-.9-1.3-2-1.3-3.3V68.9l2.3-9.3 7 1.7v27.9c0 1.3-.5 2.4-1.4 3.3-.8.8-2 1.2-3.3 1.2zM1041.2 94.2a32.4 32.4 0 01-32.8-32.6V5.9c0-1.4.4-2.5 1.1-3.3 1-.9 2-1.3 3.5-1.3 1.3 0 2.4.4 3.2 1.3.8.8 1.3 1.9 1.3 3.3v34.8a30.5 30.5 0 0124.8-12.3 30.9 30.9 0 0127.6 16.1c2.9 5 4.3 10.6 4.3 16.8a32.8 32.8 0 01-16.1 28.8c-5 2.8-10.6 4.2-17 4.2zm0-8.2c4.5 0 8.6-1.1 12.3-3.2a25 25 0 0011.7-21.5 24.8 24.8 0 00-11.7-21.5 23.9 23.9 0 00-12.3-3.2c-4.5 0-8.6 1-12.2 3.2-3.7 2.1-6.5 5-8.6 8.9-2 3.7-3 7.9-3 12.5a23.7 23.7 0 0011.6 21.5c3.6 2.2 7.7 3.3 12.2 3.3zM1113.5 95.6c-1.9 0-3.5-.7-4.8-2-1.4-1.4-2-3-2-5a6.9 6.9 0 016.9-7c1.8.1 3.4.8 4.8 2.2a6.9 6.9 0 010 9.7 6.4 6.4 0 01-4.9 2z"/>
</svg>
