<svg xmlns="http://www.w3.org/2000/svg" fill="none" viewBox="0 0 134 30">
  <path fill="#DC3E15" d="M16.3 26V5L6 7.5v14.2l-5.3 2v-.1V6.3l.3-.1L16 .5h.6L25 2.9h.2v24.3l-2.4.6-6 1.7H16L1.2 24s-.2 0-.3-.2L16.3 26zM53.8 13h-2v-1.7h2V11 9.2c0-.7.2-1.4.5-2 .7-1.4 1.8-2 3.3-2.2.5 0 1 0 1.4.2h.3V7H59c-.5-.3-1-.3-1.6-.2-.6 0-1 .4-1.2.9-.2.3-.3.6-.3 1v2.6h4.8V11 9A4 4 0 0162 6c.7-.5 1.5-.9 2.4-1l1.5.1c.1 0 .3 0 .4.2V7l-1-.3h-1c-.6.2-1 .6-1.2 1L62.8 9v2.3h2.9V13h-3v10.7h-2v-1.5V13H56v10.7h-2v-1.1V13zM33.8 15.2c0-1.7.3-3.3 1-4.8 1.2-2.3 3-3.7 5.5-4.2 1.6-.3 3-.3 4.5.1 2.4.8 4 2.4 5 4.7.5 1.5.7 3.1.6 4.7 0 1-.3 2-.6 3a7.5 7.5 0 01-6.2 5.2c-1.7.3-3.4.2-5-.5-2-1-3.4-2.4-4.1-4.5-.5-1.2-.7-2.4-.7-3.7zm14.5-.3V14c-.2-1-.4-2-.9-3a5.3 5.3 0 00-2.9-2.8l-2-.4c-2.4 0-4.2 1-5.4 3-.6 1-1 2.1-1 3.3-.2 1.5 0 3 .5 4.3a5.7 5.7 0 006.1 3.8 5.5 5.5 0 004.9-3.4c.5-1.2.6-2.5.7-3.9zM120.7 6.5v1.8h-.2c-.8-.3-1.5-.5-2.3-.6-1.4 0-2.6.3-3.5 1.3-.7.8-1.2 1.6-1.5 2.6a12 12 0 00-.5 3.6l.2-.2a4.1 4.1 0 013.4-2.2c.7 0 1.4 0 2.1.3 1.5.5 2.5 1.4 3 2.9s.5 3.1-.1 4.7A5.3 5.3 0 01116 24c-1.7-.1-3-.8-3.9-2.1-.6-1-1-2-1.2-3a15.9 15.9 0 01.8-8.6 7.7 7.7 0 012.3-3.1 6 6 0 013.7-1.3 8.5 8.5 0 013 .5zm-7.9 11.9c0 .9.3 2 1.1 2.9 1 1.1 2.6 1.3 3.8.8 1-.4 1.5-1.2 1.8-2.2.3-1 .3-2.1 0-3.2a3 3 0 00-1.9-2c-.7-.2-1.5-.3-2.2 0-1.5.3-2.6 1.7-2.6 3.7zM124 15l.6-8.7h8.1v1.8h-6.3l-.4 5 .4.1h2.5c1 .2 2 .5 3 1.2.8.7 1.3 1.7 1.5 2.8.2 1 .2 2.2-.2 3.2a5.2 5.2 0 01-3.3 3.2 8 8 0 01-3 .5c-.8 0-1.6-.1-2.3-.4-.3 0-.5-.2-.7-.3-.1 0-.2 0-.2-.2v-2l.2.2c1 .5 1.9.8 2.9 1 .9 0 1.7 0 2.5-.4 1.3-.6 2-1.6 2.2-3 0-.5 0-1-.2-1.5-.2-1-1-1.8-2-2.2-.5-.2-1.1-.4-1.8-.4l-3.2.1h-.3zM93.3 18h-8.8l.1 1.3c.1.6.4 1.2.8 1.7.6.7 1.4 1.2 2.3 1.3a6 6 0 004.4-1l.2-.2.1.2v1.3c0 .2 0 .3-.3.4-.6.4-1.3.7-2 .9-1.1.2-2.3.2-3.4 0a5 5 0 01-3.8-3.2c-.3-.6-.4-1.3-.5-2 0-1.3 0-2.5.4-3.7a5.8 5.8 0 013-3.5c1.4-.7 2.9-.7 4.4-.2 1.3.5 2.2 1.5 2.6 2.8.3.7.5 1.5.5 2.3V18zm-2-1.7c0-.9-.2-1.7-.7-2.5a3.3 3.3 0 00-4.3-.6c-1.1.8-1.6 1.9-1.8 3.1h6.7zM100.1 15.5V14h2.4c.6-.1 1.1-.2 1.6-.5 1-.4 1.6-1.3 1.7-2.4V9.7c-.3-1-1-1.7-2.1-1.9-1.5-.3-2.9 0-4.2.8l-.2.2-.2.1V8 7l1.9-.7c1.2-.3 2.5-.3 3.7 0 1.3.3 2.2 1 2.8 2.2.4.8.5 1.6.4 2.4 0 .5-.2 1-.4 1.5a4 4 0 01-2 1.9l-.8.3-.2.1 1.2.3c1.3.5 2.3 1.4 2.7 2.8.4 1.8 0 3.5-1.5 4.8-.8.8-1.8 1.2-3 1.4-1.4.3-2.8.2-4.2-.2l-1.1-.5c-.1 0-.2-.1-.2-.3v-1.8-.1l.3.2c1.6 1 3.4 1.4 5.3 1l1.4-.7a3 3 0 001-2.1V18c-.2-.7-.7-1.3-1.3-1.7a5 5 0 00-1.9-.6c-.9-.2-1.8-.1-2.7-.1h-.4zM81 11.6v2l-.3-.1a5 5 0 00-3-.8 4 4 0 00-3.4 2.2c-.4.6-.5 1.2-.6 2-.1.8 0 1.8.2 2.7a4 4 0 003.8 2.7c1 0 2-.2 3-.8l.2-.2v1.9l-.2.1c-2 1-3.9 1-5.9.2a5.2 5.2 0 01-2.8-3.3c-.7-2-.6-4 .3-6 1-1.9 2.6-3 4.8-3.2a7.1 7.1 0 013.9.6zM69.5 23.8h-2V11.3h2v12.5zM67.2 6.8c0-.7.6-1.3 1.4-1.3.7 0 1.3.6 1.3 1.4 0 .7-.7 1.2-1.4 1.2s-1.3-.6-1.3-1.3z"/>
</svg>