<svg xmlns="http://www.w3.org/2000/svg" fill="none" viewBox="0 0 86 20">
  <path fill="#2D8CFF" fill-rule="evenodd" d="M69.56 6.19c.33.56.43 1.2.47 1.9l.05.96v6.67l.04.95a2.93 2.93 0 002.82 2.8l.94.05V9.05l.05-.95c.04-.7.15-1.36.47-1.92a3.8 3.8 0 016.6.01c.32.56.42 1.2.46 1.9l.05.96v6.67l.04.95a2.91 2.91 0 002.82 2.8l.94.05V8.1a7.62 7.62 0 00-13.33-5.04A7.61 7.61 0 0062 1.79C61.26.96 59.6.48 58.65.48v19.04l.95-.04a2.87 2.87 0 002.8-2.81l.06-.95V9.05l.05-.95c.04-.72.14-1.35.46-1.92a3.82 3.82 0 016.6 0zM4.36 19.48l.95.04H19.6l-.05-.95a2.95 2.95 0 00-2.8-2.8l-.96-.05H7.22L18.65 4.29l-.05-.95A2.88 2.88 0 0015.8.52l-.96-.04H.55l.05.95a2.95 2.95 0 002.8 2.8l.96.06h8.57L1.51 15.72l.04.95a2.9 2.9 0 002.81 2.8zM54.91 3.27a9.52 9.52 0 11-13.47 13.46A9.52 9.52 0 0154.91 3.27zm-2.7 2.7a5.72 5.72 0 11-8.09 8.07 5.72 5.72 0 018.1-8.08zM28.18.46a9.52 9.52 0 11-.01 0zm4.03 5.49a5.72 5.72 0 11-8.08 8.08 5.72 5.72 0 018.08-8.08z" clip-rule="evenodd"/>
</svg>