<svg xmlns="http://www.w3.org/2000/svg" fill="none" viewBox="0 0 35 34">
  <g clip-path="url(#clip0)">
    <circle cx="18" cy="17" r="17" fill="currentColor"/>
    <path fill="#fff" d="M24.6 23.6H22v-4.3c0-1 0-2.3-1.4-2.3-1.5 0-1.7 1-1.7 2.2v4.4h-2.7v-8.8h2.6V16c.4-.7 1.3-1.4 2.6-1.4 2.8 0 3.3 1.8 3.3 4.2v4.8zM13 13.6a1.6 1.6 0 110-3.2 1.6 1.6 0 010 3.2zm1.4 10h-2.8v-8.8h2.8v8.8z"/>
  </g>
  <defs>
    <clipPath id="clip0">
      <path fill="#fff" d="M0 0h34v34H0z" transform="translate(1)"/>
    </clipPath>
  </defs>
</svg>